<svg xmlns="http://www.w3.org/2000/svg" width="24" height="24" viewBox="0 0 24 24">
    <g fill="none" fill-rule="evenodd">
        <g>
            <g>
                <g>
                    <g>
                        <path d="M0 0H24V24H0z" transform="translate(-745 -1041) translate(730 1030) translate(15 11)"/>
                    </g>
                    <g fill-rule="nonzero">
                        <path fill="#1E2447" d="M14.983 7.491c0-4.28-3.59-7.722-7.924-7.479C3.413.217.391 3.104.037 6.74c-.324 3.314 1.516 6.282 4.274 7.593 1.333.635 2.203 2.105 2.203 3.582 0 .54.438.977.977.977.54 0 .978-.437.978-.977 0-1.486.888-2.95 2.227-3.594 2.534-1.218 4.287-3.838 4.287-6.829" transform="translate(-745 -1041) translate(730 1030) translate(15 11) translate(4.4 2.4)"/>
                        <path fill="#1E2447" d="M4.56 13.029c0 .504.028 1 .08 1.485 1.144.705 1.874 2.05 1.874 3.4 0 .54.438.977.977.977.54 0 .978-.437.978-.977 0-1.486.888-2.95 2.227-3.594 2.534-1.218 4.287-3.838 4.287-6.829 0-2.022-.803-3.857-2.106-5.205-.058-.002-.116-.006-.174-.006-4.497 0-8.143 4.812-8.143 10.749" transform="translate(-745 -1041) translate(730 1030) translate(15 11) translate(4.4 2.4)"/>
                        <path fill="#ECF0F1" d="M7.491 1.303c-3.412 0-6.188 2.776-6.188 6.188 0 3.413 2.776 6.189 6.188 6.189 3.413 0 6.189-2.776 6.189-6.189 0-3.412-2.776-6.188-6.189-6.188" transform="translate(-745 -1041) translate(730 1030) translate(15 11) translate(4.4 2.4)"/>
                        <path fill="#BDC3C7" d="M11.726 7.491c-.18 0-.326-.145-.326-.325 0-2.156-1.753-3.909-3.909-3.909-2.155 0-3.908 1.753-3.908 3.909 0 .18-.146.325-.326.325-.18 0-.326-.145-.326-.325 0-2.515 2.046-4.56 4.56-4.56 2.515 0 4.56 2.045 4.56 4.56 0 .18-.145.325-.325.325" transform="translate(-745 -1041) translate(730 1030) translate(15 11) translate(4.4 2.4)"/>
                        <path fill="#FF647C" d="M6.84 12.377c-.18 0-.326-.146-.326-.326V9.446c0-.18.146-.326.326-.326.18 0 .326.146.326.326v2.605c0 .18-.146.326-.326.326" transform="translate(-745 -1041) translate(730 1030) translate(15 11) translate(4.4 2.4)"/>
                        <path fill="#FF647C" d="M7.166 10.423h.651c.18 0 .326-.146.326-.326 0-.18-.146-.326-.326-.326h-.651v.652zm.651.651H6.84c-.18 0-.326-.146-.326-.325V9.446c0-.18.146-.326.326-.326h.977c.539 0 .977.438.977.977 0 .539-.438.977-.977.977z" transform="translate(-745 -1041) translate(730 1030) translate(15 11) translate(4.4 2.4)"/>
                        <path fill="#BDC3C7" d="M4.234 7.491h-.977c-.18 0-.326-.145-.326-.325 0-.18.146-.326.326-.326h.977c.18 0 .326.146.326.326 0 .18-.146.325-.326.325M11.726 7.491h-.977c-.18 0-.326-.145-.326-.325 0-.18.146-.326.326-.326h.977c.18 0 .325.146.325.326 0 .18-.145.325-.325.325M7.491 4.234c-.18 0-.325-.146-.325-.325V2.93c0-.18.146-.325.325-.325.18 0 .326.146.326.325v.978c0 .18-.146.325-.326.325M6.8 6.8c-.083 0-.166-.031-.23-.095l-.612-.612c-.127-.127-.127-.333 0-.46.128-.128.334-.128.46 0l.613.612c.127.127.127.333 0 .46-.064.064-.147.096-.23.096M5.205 5.205c-.084 0-.167-.032-.23-.096l-.708-.707c-.127-.127-.127-.334 0-.46.127-.128.333-.128.46 0l.708.707c.127.127.127.333 0 .46-.064.064-.147.096-.23.096M9.795 5.188c-.084 0-.167-.032-.23-.095-.128-.128-.128-.333 0-.46l.69-.692c.128-.127.334-.127.46 0 .128.127.128.334 0 .46l-.69.692c-.064.063-.147.095-.23.095" transform="translate(-745 -1041) translate(730 1030) translate(15 11) translate(4.4 2.4)"/>
                        <path fill="#FF647C" d="M8.469 7.166c0-.54-.438-.977-.978-.977s-.977.437-.977.977.438.977.977.977c.54 0 .978-.438.978-.977" transform="translate(-745 -1041) translate(730 1030) translate(15 11) translate(4.4 2.4)"/>
                    </g>
                </g>
            </g>
        </g>
    </g>
</svg>
