<svg xmlns="http://www.w3.org/2000/svg" width="15" height="15" viewBox="0 0 15 15">
    <g fill="none" fill-rule="evenodd" opacity=".3">
        <g>
            <g>
                <g>
                    <g>
                        <path d="M0 0H15V15H0z" transform="translate(-221 -102) translate(0 48) translate(20 51) translate(201 3)"/>
                        <g fill="#FFF" fill-rule="nonzero">
                            <path d="M7.49 10.5c-.12 0-.26 0-.381-.02-1.344-.16-2.427-1.26-2.588-2.58-.1-.859.16-1.719.722-2.378.662-.74 1.645-1.12 2.648-1 1.344.16 2.427 1.26 2.588 2.579.1.86-.16 1.72-.722 2.38-.582.64-1.404 1.019-2.267 1.019zm0-5.198c-.642 0-1.244.28-1.665.74-.421.48-.622 1.099-.542 1.739.12.98.923 1.78 1.906 1.9.742.1 1.464-.18 1.946-.72.421-.48.622-1.1.542-1.74-.12-.98-.923-1.78-1.906-1.9-.1-.02-.2-.02-.281-.02z" transform="translate(-221 -102) translate(0 48) translate(20 51) translate(201 3)"/>
                            <path d="M8.792 15H6.228l-.183-1.425c-.631-.142-1.242-.407-1.812-.753l-1.119.875-1.811-1.811.875-1.12c-.346-.57-.59-1.16-.753-1.81L0 8.771V6.228l1.425-.183c.142-.631.407-1.242.753-1.812l-.875-1.119 1.811-1.811 1.12.875c.57-.346 1.16-.59 1.81-.753L6.229 0h2.544l.183 1.425c.631.142 1.242.407 1.812.753l1.119-.875 1.811 1.811-.875 1.14c.346.57.59 1.16.753 1.811L15 6.248v2.544l-1.425.184c-.142.63-.407 1.241-.753 1.811l.875 1.12-1.811 1.81-1.12-.895c-.57.346-1.16.59-1.81.753L8.791 15zm-1.831-.814h1.12l.162-1.282.285-.061c.733-.143 1.425-.428 2.035-.855l.244-.163 1.018.794.794-.794-.794-1.018.163-.244c.427-.61.712-1.302.855-2.035l.06-.285 1.283-.163V6.96l-1.282-.162-.061-.305c-.143-.733-.428-1.425-.855-2.036l-.163-.244.794-1.018-.794-.793-1.018.793-.244-.162c-.61-.428-1.302-.713-2.035-.855l-.285-.061L8.08.834H6.96l-.162 1.283-.305.06c-.733.143-1.425.428-2.036.856l-.244.162-1.018-.793-.793.793.793 1.018-.162.244c-.428.61-.713 1.303-.855 2.036l-.061.284-1.283.163v1.12l1.283.163.06.284c.143.733.428 1.425.856 2.036l.162.244-.793 1.018.793.793 1.018-.793.244.183c.61.427 1.303.712 2.036.855l.284.06.184 1.283z" transform="translate(-221 -102) translate(0 48) translate(20 51) translate(201 3)"/>
                        </g>
                    </g>
                </g>
            </g>
        </g>
    </g>
</svg>
