<svg xmlns="http://www.w3.org/2000/svg" width="26" height="26" viewBox="0 0 26 26">
    <defs>
        <filter id="znqu9h2qga">
            <feColorMatrix in="SourceGraphic" values="0 0 0 0 1.000000 0 0 0 0 1.000000 0 0 0 0 1.000000 0 0 0 1.000000 0"/>
        </filter>
    </defs>
    <g fill="none" fill-rule="evenodd" opacity=".2">
        <g>
            <g>
                <g>
                    <g>
                        <g>
                            <path d="M0 0H26V26H0z" transform="translate(-364 -11) translate(272) translate(70) translate(22 11)"/>
                        </g>
                        <g filter="url(#znqu9h2qga)" transform="translate(-364 -11) translate(272) translate(70) translate(22 11)">
                            <g>
                                <path fill="#FFF" fill-rule="nonzero" d="M9.397 22.404c1.34 0 2.427-1.087 2.427-2.427H6.97c0 1.34 1.086 2.427 2.427 2.427zM18.552 17.825l-2.16-2.407v-5.306s.5-6.325-5.21-7.406v-.575c-.002-.985-.8-1.782-1.785-1.782-.985 0-1.784.797-1.785 1.782v.576C1.91 3.789 2.4 10.112 2.4 10.112v5.306l-2.16 2.407c-.197.196-.255.492-.149.75.107.256.357.424.635.424h17.339c.278 0 .529-.168.635-.425.107-.257.048-.553-.149-.75zm-8.346-2.74H8.587v-1.62h1.619v1.62zm0-3.058H8.587V7.666h1.619v4.36z" transform="translate(3.25 1.083)"/>
                            </g>
                        </g>
                    </g>
                </g>
            </g>
        </g>
    </g>
</svg>
