<svg xmlns="http://www.w3.org/2000/svg" width="13" height="13" viewBox="0 0 13 13">
    <g fill="none" fill-rule="evenodd" opacity=".5">
        <g fill="#1E2447">
            <g>
                <g>
                    <g>
                        <g>
                            <g>
                                <g>
                                    <g>
                                        <path stroke="#1E2447" stroke-width=".2" d="M9-.26l.687 1.72H11.7c.387 0 .737.157.99.41.222.222.37.517.403.847l.007.143v8.58c0 .387-.157.737-.41.99-.222.222-.517.37-.847.403l-.143.007H1.3c-.387 0-.737-.157-.99-.41-.222-.222-.37-.517-.403-.847L-.1 11.44V2.86c0-.387.157-.737.41-.99.222-.222.517-.37.847-.403L1.3 1.46h1.98V-.26l.687 1.72H9V-.26zM3.28 2.18H1.3l-.107.008c-.14.023-.265.088-.362.186-.122.121-.2.293-.211.491h0v8.575l.008.107c.023.14.088.265.186.362.121.122.293.2.491.211H11.7l.107-.008c.14-.023.265-.088.362-.186.122-.121.2-.293.211-.491h0V2.86l-.009-.11c-.023-.144-.092-.272-.19-.37-.123-.124-.293-.2-.481-.2h0-2.027L9 3.19V2.18H3.953L3.28 3.19V2.18z" transform="translate(-1290 -404) translate(1190 48) translate(0 96) translate(15 20) translate(5 213) translate(0 1) translate(80 26) translate(0 .26)"/>
                                        <g>
                                            <path d="M7.02 0h2.246c.144 0 .26.148.26.33v.042c0 .182-.116.33-.26.33H7.02c-.144 0-.26-.148-.26-.33V.33c0-.182.116-.33.26-.33zM3.64 0h2.246c.144 0 .26.148.26.33v.042c0 .182-.116.33-.26.33H3.64c-.144 0-.26-.148-.26-.33V.33c0-.182.116-.33.26-.33zM3.64 1.82h2.246c.144 0 .26.148.26.33v.042c0 .182-.116.33-.26.33H3.64c-.144 0-.26-.148-.26-.33V2.15c0-.182.116-.33.26-.33zM7.02 1.82h2.246c.144 0 .26.148.26.33v.042c0 .182-.116.33-.26.33H7.02c-.144 0-.26-.148-.26-.33V2.15c0-.182.116-.33.26-.33zM7.02 3.64h2.246c.144 0 .26.148.26.33v.042c0 .182-.116.33-.26.33H7.02c-.144 0-.26-.148-.26-.33V3.97c0-.182.116-.33.26-.33zM3.64 3.64h2.246c.144 0 .26.148.26.33v.042c0 .182-.116.33-.26.33H3.64c-.144 0-.26-.148-.26-.33V3.97c0-.182.116-.33.26-.33zM.26 3.64h2.246c.144 0 .26.148.26.33v.042c0 .182-.116.33-.26.33H.26c-.144 0-.26-.148-.26-.33V3.97c0-.182.116-.33.26-.33zM.26 1.82h2.246c.144 0 .26.148.26.33v.042c0 .182-.116.33-.26.33H.26c-.144 0-.26-.148-.26-.33V2.15c0-.182.116-.33.26-.33z" transform="translate(-1290 -404) translate(1190 48) translate(0 96) translate(15 20) translate(5 213) translate(0 1) translate(80 26) translate(0 .26) translate(1.82 6.5)"/>
                                        </g>
                                    </g>
                                </g>
                            </g>
                        </g>
                    </g>
                </g>
            </g>
        </g>
    </g>
</svg>
