<svg xmlns="http://www.w3.org/2000/svg" width="26" height="27" viewBox="0 0 26 27">
    <g fill="none" fill-rule="evenodd">
        <g>
            <g>
                <g>
                    <g>
                        <g>
                            <path fill-rule="nonzero" stroke="#FFF" stroke-width=".5" d="M10.937.882c.006-.446-.126-.83-.304-.882h-.79c-.176.058-.303.39-.303.882 0 .493-.362 15.52-.54 23.213 0 .51.213.905.504.905h1.492c.29 0 .517-.396.503-.905-.196-7.738-.384-15.475-.562-23.213z" transform="translate(-294 -10) translate(272) translate(22 11) translate(3 .5)"/>
                            <g>
                                <g>
                                    <path stroke="#FFF" stroke-linecap="round" stroke-width=".6" d="M2 4.5L18 4.5" transform="translate(-294 -10) translate(272) translate(22 11) translate(3 .5) translate(0 2) translate(0 9)"/>
                                    <g fill="#FFF">
                                        <path d="M2.833 1L2.833 2.5 3.167 2.5 3.167 3.5 1.833 3.5 1.833 2.5 2.167 2.5 2.167 1z" transform="translate(-294 -10) translate(272) translate(22 11) translate(3 .5) translate(0 2) translate(0 9) translate(0 .2)"/>
                                        <path d="M4.333 0C4.702 0 5 .298 5 .667c0 .368-.298.666-.667.666-.246 0-.462-.134-.577-.333H1.244c-.115.2-.33.333-.577.333C.298 1.333 0 1.035 0 .667 0 .298.298 0 .667 0c.246 0 .462.134.577.333h2.512C3.87.134 4.086 0 4.333 0z" transform="translate(-294 -10) translate(272) translate(22 11) translate(3 .5) translate(0 2) translate(0 9) translate(0 .2)"/>
                                    </g>
                                    <g fill="#FFF">
                                        <path d="M2.833 1L2.833 2.5 3.167 2.5 3.167 3.5 1.833 3.5 1.833 2.5 2.167 2.5 2.167 1z" transform="translate(-294 -10) translate(272) translate(22 11) translate(3 .5) translate(0 2) translate(0 9) translate(15 .2)"/>
                                        <path d="M4.333 0C4.702 0 5 .298 5 .667c0 .368-.298.666-.667.666-.246 0-.462-.134-.577-.333H1.244c-.115.2-.33.333-.577.333C.298 1.333 0 1.035 0 .667 0 .298.298 0 .667 0c.246 0 .462.134.577.333h2.512C3.87.134 4.086 0 4.333 0z" transform="translate(-294 -10) translate(272) translate(22 11) translate(3 .5) translate(0 2) translate(0 9) translate(15 .2)"/>
                                    </g>
                                </g>
                                <g>
                                    <path stroke="#FFF" stroke-linecap="round" stroke-width=".6" d="M2 4.5L16 4.5" transform="translate(-294 -10) translate(272) translate(22 11) translate(3 .5) translate(0 2) translate(1)"/>
                                    <g fill="#FFF">
                                        <path d="M2.833 1L2.833 2.5 3.167 2.5 3.167 3.5 1.833 3.5 1.833 2.5 2.167 2.5 2.167 1z" transform="translate(-294 -10) translate(272) translate(22 11) translate(3 .5) translate(0 2) translate(1) translate(0 .2)"/>
                                        <path d="M4.333 0C4.702 0 5 .298 5 .667c0 .368-.298.666-.667.666-.246 0-.462-.134-.577-.333H1.244c-.115.2-.33.333-.577.333C.298 1.333 0 1.035 0 .667 0 .298.298 0 .667 0c.246 0 .462.134.577.333h2.512C3.87.134 4.086 0 4.333 0z" transform="translate(-294 -10) translate(272) translate(22 11) translate(3 .5) translate(0 2) translate(1) translate(0 .2)"/>
                                    </g>
                                    <g fill="#FFF">
                                        <path d="M2.833 1L2.833 2.5 3.167 2.5 3.167 3.5 1.833 3.5 1.833 2.5 2.167 2.5 2.167 1z" transform="translate(-294 -10) translate(272) translate(22 11) translate(3 .5) translate(0 2) translate(1) translate(13 .2)"/>
                                        <path d="M4.333 0C4.702 0 5 .298 5 .667c0 .368-.298.666-.667.666-.246 0-.462-.134-.577-.333H1.244c-.115.2-.33.333-.577.333C.298 1.333 0 1.035 0 .667 0 .298.298 0 .667 0c.246 0 .462.134.577.333h2.512C3.87.134 4.086 0 4.333 0z" transform="translate(-294 -10) translate(272) translate(22 11) translate(3 .5) translate(0 2) translate(1) translate(13 .2)"/>
                                    </g>
                                </g>
                            </g>
                        </g>
                        <path stroke="#FFF" stroke-width=".2" d="M11.373 17.226L9 21.058M11.178 9.34L9.352 13.2M11.373 24.702L9 21.058M11.373 17.226L9.352 13.2M11.178 9.34L9.614 4.728 10.937.882" transform="translate(-294 -10) translate(272) translate(22 11) translate(3 .5)"/>
                    </g>
                </g>
            </g>
        </g>
    </g>
</svg>
