<svg xmlns="http://www.w3.org/2000/svg" width="26" height="26" viewBox="0 0 26 26">
    <g fill="none" fill-rule="evenodd" opacity=".3">
        <g>
            <g>
                <g>
                    <g>
                        <g>
                            <path d="M0 0H26V26H0z" transform="translate(-472 -505) translate(110 236) translate(0 233) translate(0 26) translate(362 10)"/>
                            <g fill="#1E2447" fill-rule="nonzero">
                                <path d="M8.667.394C4.727.394 1.363 2.844 0 6.303c1.363 3.459 4.727 5.91 8.667 5.91 3.94 0 7.303-2.451 8.666-5.91C15.97 2.844 12.606.393 8.667.393zm0 9.848c-2.175 0-3.94-1.764-3.94-3.939s1.765-3.94 3.94-3.94c2.174 0 3.94 1.765 3.94 3.94s-1.766 3.94-3.94 3.94zm0-6.303c-1.308 0-2.364 1.056-2.364 2.364 0 1.308 1.056 2.364 2.364 2.364 1.308 0 2.363-1.056 2.363-2.364 0-1.308-1.055-2.364-2.363-2.364z" transform="translate(-472 -505) translate(110 236) translate(0 233) translate(0 26) translate(362 10) translate(4.333 6.5)"/>
                            </g>
                        </g>
                    </g>
                </g>
            </g>
        </g>
    </g>
</svg>
