<svg xmlns="http://www.w3.org/2000/svg" width="18" height="18" viewBox="0 0 18 18">
    <g fill="none" fill-rule="evenodd" opacity="1">
        <g>
            <g>
                <g>
                    <g>
                        <g>
                            <path d="M0 0H18V18H0z" transform="translate(-45 -603) translate(0 48) translate(0 552) translate(45 3)"/>
                        </g>
                        <g fill-rule="nonzero">
                            <path fill="#FFF" d="M11.237 5.619c0-3.21-2.692-5.792-5.943-5.61-2.734.154-5 2.32-5.266 5.045-.243 2.486 1.137 4.712 3.205 5.695 1 .476 1.653 1.58 1.653 2.686 0 .405.328.734.733.734.404 0 .732-.329.732-.733 0-1.115.667-2.213 1.671-2.696 1.9-.913 3.215-2.879 3.215-5.121" transform="translate(-45 -603) translate(0 48) translate(0 552) translate(45 3) translate(3.3 1.8)"/>
                            <path fill="#FFF" d="M3.42 9.771c0 .379.021.75.06 1.114.858.529 1.406 1.537 1.406 2.55 0 .405.328.734.733.734.404 0 .732-.329.732-.733 0-1.115.667-2.213 1.671-2.696 1.9-.913 3.215-2.879 3.215-5.121 0-1.517-.602-2.894-1.579-3.905-.044 0-.087-.004-.13-.004-3.374 0-6.108 3.61-6.108 8.061" transform="translate(-45 -603) translate(0 48) translate(0 552) translate(45 3) translate(3.3 1.8)"/>
                            <path fill="#111B30" d="M5.619.977C3.059.977.977 3.06.977 5.62c0 2.559 2.082 4.641 4.642 4.641 2.559 0 4.641-2.082 4.641-4.641 0-2.56-2.082-4.642-4.641-4.642" transform="translate(-45 -603) translate(0 48) translate(0 552) translate(45 3) translate(3.3 1.8)"/>
                            <path fill="#FFF" d="M8.794 5.619c-.135 0-.244-.11-.244-.245 0-1.616-1.315-2.931-2.931-2.931-1.617 0-2.932 1.315-2.932 2.931 0 .135-.11.245-.244.245-.135 0-.244-.11-.244-.245 0-1.886 1.534-3.42 3.42-3.42 1.885 0 3.42 1.534 3.42 3.42 0 .135-.11.245-.245.245M5.13 9.283c-.135 0-.244-.11-.244-.244V7.084c0-.135.11-.244.244-.244.135 0 .244.11.244.244V9.04c0 .134-.11.244-.244.244" transform="translate(-45 -603) translate(0 48) translate(0 552) translate(45 3) translate(3.3 1.8)"/>
                            <path fill="#FFF" d="M5.374 7.817h.489c.134 0 .244-.11.244-.244 0-.135-.11-.244-.244-.244h-.489v.488zm.489.489H5.13c-.135 0-.244-.11-.244-.245v-.977c0-.135.11-.244.244-.244h.733c.404 0 .733.329.733.733 0 .404-.33.733-.733.733zM3.176 5.619h-.733c-.135 0-.244-.11-.244-.245s.109-.244.244-.244h.733c.135 0 .244.11.244.244 0 .135-.11.245-.244.245M8.794 5.619h-.733c-.134 0-.244-.11-.244-.245s.11-.244.244-.244h.733c.135 0 .245.11.245.244 0 .135-.11.245-.245.245M5.619 3.176c-.135 0-.245-.11-.245-.245V2.2c0-.135.11-.245.245-.245.134 0 .244.11.244.245v.732c0 .135-.11.245-.244.245M5.1 5.1c-.062 0-.125-.024-.172-.071l-.46-.46c-.095-.095-.095-.25 0-.345.096-.095.25-.095.346 0l.46.46c.095.095.095.25 0 .345-.049.047-.111.071-.174.071M3.903 3.903c-.062 0-.125-.023-.172-.071l-.53-.53c-.096-.096-.096-.25 0-.346.095-.095.25-.095.345 0l.53.53c.096.096.096.25 0 .346-.047.048-.11.071-.173.071M7.346 3.891c-.063 0-.125-.024-.173-.071-.095-.096-.095-.25 0-.346l.518-.518c.096-.095.25-.095.346 0 .095.095.095.25 0 .345l-.518.519c-.048.047-.11.071-.173.071" transform="translate(-45 -603) translate(0 48) translate(0 552) translate(45 3) translate(3.3 1.8)"/>
                            <path fill="#FFF" d="M6.351 5.374c0-.404-.328-.733-.732-.733-.405 0-.733.329-.733.733 0 .405.328.733.733.733.404 0 .732-.328.732-.733" transform="translate(-45 -603) translate(0 48) translate(0 552) translate(45 3) translate(3.3 1.8)"/>
                        </g>
                    </g>
                </g>
            </g>
        </g>
    </g>
</svg>
