<svg xmlns="http://www.w3.org/2000/svg" width="167" height="12" viewBox="0 0 167 12">
    <g fill="none" fill-rule="evenodd" opacity=".9">
        <g fill="#FFF" fill-rule="nonzero">
            <g>
                <path d="M58.798 29.07c.21 0 .546-.028.756-.07v-1.694c-.07.014-.196.028-.308.028-.322 0-.392-.084-.574-.42l-1.26-2.38c1.134-.448 1.778-1.386 1.778-2.8 0-2.142-1.316-2.996-3.318-2.996h-3.528V29h1.89v-3.99h1.4l1.4 2.814c.462.938.868 1.246 1.764 1.246zm-3.136-5.516h-1.428v-3.318h1.526c1.064 0 1.498.574 1.498 1.582 0 1.162-.56 1.736-1.596 1.736zM66.812 29l-.098-1.428h-3.15v-1.75h2.94v-1.386h-2.94v-1.708h3.122V21.3h-4.928V29h5.054zm4.682.14c1.778 0 2.814-.812 2.814-2.408 0-1.134-.588-1.764-1.694-2.142l-1.246-.42c-.49-.168-.672-.378-.672-.742 0-.588.336-.868.924-.868.378 0 .868.07 2.03.364l.336-1.456c-1.134-.266-1.694-.308-2.254-.308-1.82 0-2.828.924-2.828 2.394 0 1.036.588 1.694 1.722 2.058l1.246.406c.462.154.658.392.658.854 0 .532-.308.868-.91.868-.434 0-.84-.07-2.31-.546l-.392 1.428c1.344.476 1.904.518 2.576.518zm8.098 0c2.072 0 3.402-1.162 3.402-4.004 0-2.87-1.316-3.976-3.402-3.976-2.058 0-3.402 1.176-3.402 4.004 0 2.842 1.316 3.976 3.402 3.976zm0-1.386c-.952 0-1.512-.434-1.512-2.618 0-2.128.532-2.59 1.512-2.59.994 0 1.526.462 1.526 2.59 0 2.198-.574 2.618-1.526 2.618zm8.826 1.386c2.002 0 3.066-.756 3.066-2.828V21.3h-1.75v5.012c0 1.064-.434 1.358-1.302 1.358-.938 0-1.274-.392-1.274-1.358V21.3h-1.806v5.012c0 2.268 1.246 2.828 3.066 2.828zm11.108-.098c.14 0 .448-.014.7-.042l.07-1.47c-.084.014-.224.028-.308.028-.21 0-.308-.042-.434-.28l-.938-1.722c.84-.294 1.358-.924 1.358-2.002 0-1.652-.952-2.254-2.66-2.254h-2.898V29h1.736v-2.926h.938l.994 1.974c.35.7.672.994 1.442.994zm-2.338-4.144h-1.036v-2.296h1.078c.686 0 1.036.322 1.036 1.12 0 .868-.392 1.176-1.078 1.176zm8.392 4.242c.644 0 1.372-.154 2.338-.602l-.364-1.498c-1.078.49-1.582.63-1.932.63-.966 0-1.526-.364-1.526-2.562 0-2.072.56-2.478 1.456-2.478.42 0 .98.154 1.834.49l.378-1.498c-1.022-.378-1.638-.462-2.254-.462-2.17 0-3.304 1.19-3.304 3.962 0 2.744.98 4.018 3.374 4.018zm9.61-.14l-.098-1.428h-3.15v-1.75h2.94v-1.386h-2.94v-1.708h3.122V21.3h-4.928V29h5.054zm9.154 0c2.856 0 4.48-1.708 4.48-5.32 0-3.752-1.904-4.942-4.522-4.942h-3.332V29h3.374zm-.028-1.582h-1.442v-7.112h1.47c1.512 0 2.45.518 2.45 3.402 0 2.982-.756 3.71-2.478 3.71zm7.58 1.582l.518-1.862h2.296l.518 1.862h1.792l-2.226-7.7h-2.352L130.16 29h1.736zm2.548-3.094h-1.75l.714-2.576c.056-.21.112-.588.112-.742h.112c0 .154.056.518.112.742l.7 2.576zm6.88 3.094v-6.216h1.89V21.3h-5.586v1.484h1.89V29h1.806zm4.22 0l.518-1.862h2.296l.518 1.862h1.792l-2.226-7.7h-2.352l-2.282 7.7h1.736zm2.548-3.094h-1.75l.714-2.576c.056-.21.112-.588.112-.742h.112c0 .154.056.518.112.742l.7 2.576zM157.624 29v-3.612h1.26c2.002 0 3.668-.924 3.668-3.402 0-2.352-1.344-3.248-3.528-3.248h-3.304V29h1.904zm1.274-5.18h-1.274v-3.528h1.372c.854 0 1.568.322 1.568 1.708 0 1.484-.742 1.82-1.666 1.82zM169.81 29l-.112-1.484h-2.926V21.3h-1.806V29h4.844zm2.568 0l.518-1.862h2.296L175.71 29h1.792l-2.226-7.7h-2.352l-2.282 7.7h1.736zm2.548-3.094h-1.75l.714-2.576c.056-.21.112-.588.112-.742h.112c0 .154.056.518.112.742l.7 2.576zm6.88 3.094v-6.216h1.89V21.3h-5.586v1.484H180V29h1.806zm5.718 0v-3.024h2.94v-1.372h-2.94v-1.876h3.108V21.3h-4.914V29h1.806zm8.364.14c2.072 0 3.402-1.162 3.402-4.004 0-2.87-1.316-3.976-3.402-3.976-2.058 0-3.402 1.176-3.402 4.004 0 2.842 1.316 3.976 3.402 3.976zm0-1.386c-.952 0-1.512-.434-1.512-2.618 0-2.128.532-2.59 1.512-2.59.994 0 1.526.462 1.526 2.59 0 2.198-.574 2.618-1.526 2.618zm10.996 1.288c.14 0 .448-.014.7-.042l.07-1.47c-.084.014-.224.028-.308.028-.21 0-.308-.042-.434-.28l-.938-1.722c.84-.294 1.358-.924 1.358-2.002 0-1.652-.952-2.254-2.66-2.254h-2.898V29h1.736v-2.926h.938l.994 1.974c.35.7.672.994 1.442.994zm-2.338-4.144h-1.036v-2.296h1.078c.686 0 1.036.322 1.036 1.12 0 .868-.392 1.176-1.078 1.176zM211.412 29l.266-4.536c.014-.322.014-.63.014-.868h.112c.014.168.098.602.168.882L213.19 29h1.736l1.218-4.536c.056-.21.154-.714.168-.868h.112c0 .238 0 .546.014.868L216.69 29h1.694l-.518-7.7h-2.058l-1.442 4.704c-.098.336-.182.812-.182 1.036h-.112c-.014-.224-.098-.7-.196-1.036l-1.442-4.704h-2.072l-.546 7.7h1.596z" transform="translate(-52 -18)"/>
            </g>
        </g>
    </g>
</svg>
