<svg xmlns="http://www.w3.org/2000/svg" xmlns:xlink="http://www.w3.org/1999/xlink" width="12" height="12" viewBox="0 0 12 12">
    <defs>
        <path id="r0nllx6k9a" d="M8.845 3.163c.196 0 .355-.158.355-.354v-.491C9.2 1.58 8.593.982 7.846.982h-1.22L6.538.927 6.44.737C6.21.281 5.746 0 5.23 0H3.97c-.515 0-.979.282-1.21.737l-.097.19-.088.055h-1.22C.607.982 0 1.582 0 2.318v.49c0 .197.159.355.355.355h.144v7.01C.5 11.18 1.33 12 2.353 12h4.494c1.023 0 1.854-.82 1.854-1.827v-7.01h.144zm-7.636 0h6.782v7.01c0 .617-.514 1.119-1.144 1.119H2.353c-.63 0-1.144-.502-1.144-1.119v-7.01zm2.642.765c-.196 0-.355.158-.355.354v5.891c0 .196.159.354.355.354.196 0 .355-.158.355-.354V4.282c0-.196-.16-.354-.355-.354zm-1.498 0c-.196 0-.355.158-.355.354v5.891c0 .196.159.354.355.354.195 0 .354-.158.354-.354V4.282c0-.196-.159-.354-.354-.354zm2.996 0c-.196 0-.355.158-.355.354v5.891c0 .196.16.354.355.354.196 0 .355-.158.355-.354V4.282c0-.196-.159-.354-.355-.354zm1.498 0c-.195 0-.354.158-.354.354v5.891c0 .196.159.354.354.354.196 0 .355-.158.355-.354V4.282c0-.196-.159-.354-.355-.354zm1.643-1.61v.137H.71v-.137c0-.346.29-.628.644-.628h1.498c.133 0 .255-.074.316-.193l.224-.44c.11-.215.33-.349.577-.349h1.262c.246 0 .468.134.577.35l.223.438c.061.12.184.194.317.194h1.498c.355 0 .644.282.644.628z"/>
    </defs>
    <g fill="none" fill-rule="evenodd" opacity=".7">
        <g>
            <g>
                <g>
                    <g>
                        <g>
                            <g>
                                <path d="M0 0H12V12H0z" transform="translate(-1210 -1006) translate(1190 48) translate(0 936) translate(0 20) translate(20 2)"/>
                            </g>
                            <g transform="translate(-1210 -1006) translate(1190 48) translate(0 936) translate(0 20) translate(20 2) translate(1.6)">
                                <path fill="#FFF" d="M5.217 0c.54 0 1.028.298 1.271.778l.095.188h1.194c.783 0 1.423.632 1.423 1.413v.483c0 .25-.201.448-.445.448h-.044v6.793C8.711 11.152 7.852 12 6.8 12H2.4C1.348 12 .49 11.152.49 10.103V3.31H.444C.2 3.31 0 3.112 0 2.862V2.38C0 1.598.64.966 1.423.966h1.194L2.71.778C2.955.298 3.442 0 3.982 0h1.235zM1.38 3.31v6.793c0 .55.456 1 1.021 1h4.4c.565 0 1.021-.45 1.021-1V3.31H1.38zm2.488.552c.243 0 .445.199.445.448v5.793c0 .25-.202.449-.445.449-.244 0-.445-.199-.445-.449V4.31c0-.25.201-.448.445-.448zm-1.467 0c.244 0 .445.199.445.448v5.793c0 .25-.201.449-.445.449-.243 0-.445-.199-.445-.449V4.31c0-.25.202-.448.445-.448zm2.933 0c.244 0 .445.199.445.448v5.793c0 .25-.201.449-.445.449-.243 0-.445-.199-.445-.449V4.31c0-.25.202-.448.445-.448zm1.467 0c.243 0 .445.199.445.448v5.793c0 .25-.202.449-.445.449-.244 0-.445-.199-.445-.449V4.31c0-.25.201-.448.445-.448zM8.31 2.38c0-.283-.237-.517-.533-.517H6.311c-.166 0-.32-.093-.396-.244l-.219-.432c-.09-.178-.273-.29-.478-.29H3.983c-.207 0-.389.112-.479.29l-.219.432c-.077.15-.23.244-.396.244H1.423c-.296 0-.533.234-.533.517v.035h7.42v-.035z"/>
                                <mask id="durwljhfkb" fill="#fff">
                                    <use xlink:href="#r0nllx6k9a"/>
                                </mask>
                                <use fill="#FFF" xlink:href="#r0nllx6k9a"/>
                                <g fill="#1E2447" mask="url(#durwljhfkb)">
                                    <path d="M0 0H12V12H0z" transform="translate(-1.2)"/>
                                </g>
                            </g>
                        </g>
                    </g>
                </g>
            </g>
        </g>
    </g>
</svg>
