<svg xmlns="http://www.w3.org/2000/svg" width="24" height="24" viewBox="0 0 24 24">
    <defs>
        <filter id="4nz2reqx6a">
            <feColorMatrix in="SourceGraphic" values="0 0 0 0 0.117647 0 0 0 0 0.141176 0 0 0 0 0.278431 0 0 0 1.000000 0"/>
        </filter>
    </defs>
    <g fill="none" fill-rule="evenodd">
        <g>
            <g>
                <g>
                    <g>
                        <path d="M0 0H24V24H0z" transform="translate(-300 -569) translate(285 558) translate(15 11)"/>
                    </g>
                    <g filter="url(#4nz2reqx6a)" transform="translate(-300 -569) translate(285 558) translate(15 11)">
                        <g transform="translate(0 4.8)">
                            <g stroke="#303030" stroke-linecap="round" stroke-linejoin="round" stroke-width=".618">
                                <ellipse cx="12.48" cy="3.564" rx="1.581" ry="1"/>
                                <path d="M10.898 3.564L10.413 8.386 10.977 9.044 14.139 9.044 14.751 8.361 14.061 3.564M10.425 8.264L14.644 8.286"/>
                                <path d="M14.127 4.024l3.338-.46s.804-.204.818-.77M14.27 5.013c.124-.018 3.3-.427 3.3-.427s.779-.053.805.778"/>
                                <path d="M17.112 4.642c.315 1.528 1.633 2.677 3.207 2.677 1.814 0 3.284-1.522 3.284-3.395 0-1.872-1.47-3.388-3.284-3.388-1.714 0-3.125 1.359-3.265 3.085M10.726 4.333L7.536 4.788M10.603 5.557L7.512 5.808M7.512 5.808C7.238 7.47 5.815 8.73 4.095 8.73c-1.913 0-3.47-1.575-3.47-3.517 0-1.947 1.557-3.522 3.47-3.522 1.779 0 3.237 1.353 3.44 3.097"/>
                                <circle cx="13.114" cy="5.211" r="1"/>
                                <path d="M11.273 9.044L11.877 10 13.114 10 13.821 9.044M12.028 10H13.028V13.491H12.028zM22.106 2.63s.926 1.525-.17 2.835M21.283 6.035s-.314.153-.596.164"/>
                            </g>
                            <circle cx="4.08" cy="5.25" r="2.587" stroke="#303030" stroke-linecap="round" stroke-linejoin="round" stroke-width=".618"/>
                            <path fill="#303030" fill-rule="nonzero" d="M4.08 5.975c-.82 0-1.509-.54-1.746-1.283-.057.177-.096.362-.096.558 0 1.018.825 1.842 1.842 1.842 1.018 0 1.842-.824 1.842-1.842 0-.196-.039-.38-.095-.558-.238.742-.925 1.283-1.747 1.283z"/>
                        </g>
                    </g>
                </g>
            </g>
        </g>
    </g>
</svg>
