<svg xmlns="http://www.w3.org/2000/svg" width="18" height="18" viewBox="0 0 18 18">
    <g fill="none" fill-rule="evenodd" opacity="1">
        <g>
            <g>
                <g>
                    <g>
                        <g>
                            <path d="M0 0H18V18H0z" transform="translate(-45 -458) translate(0 48) translate(0 407) translate(45 3)"/>
                        </g>
                        <g fill="#FFF">
                            <path d="M3.98 0L0 1.502l3.98 1.501-.356-1.074h8.754l.733.948h4.349L16.393 1.5l.61-.79.455-.588h-4.348l-.733.949H3.625L3.98 0zm9.352.811h.445l-.532.689.532.689h-.445l-.533-.69.533-.688zm1.198 0h.446l-.533.689.533.689h-.446l-.532-.69.532-.688zm1.198 0h.446l-.532.689.532.689h-.446l-.532-.69.532-.688z" transform="translate(-45 -458) translate(0 48) translate(0 407) translate(45 3) translate(0 6.6)"/>
                            <path fill-rule="nonzero" d="M8.14 0.48H9.14V5.295999999999999H8.14z" transform="translate(-45 -458) translate(0 48) translate(0 407) translate(45 3) translate(0 6.6)"/>
                        </g>
                    </g>
                </g>
            </g>
        </g>
    </g>
</svg>
